<svg width="27" height="27" fill="none" xmlns="http://www.w3.org/2000/svg"><path d="M9.542 27c1.116 0 2.02-.924 2.02-2.064 0-1.14-.904-2.065-2.02-2.065-1.115 0-2.02.925-2.02 2.065S8.427 27 9.542 27zm12.273 0c1.115 0 2.02-.924 2.02-2.064 0-1.14-.905-2.065-2.02-2.065-1.116 0-2.02.925-2.02 2.065S20.699 27 21.815 27zM27 4.176c-.078-.17-.118-.851-.12-1.022.002-.171.042-.342.12-.511H8l1 1.533h18z" fill="#5661CB"/><path d="M24.508 10.024h-.377l-1.122 5.047H9.542L5.44 1.793a.921.921 0 00-.225-.372.894.894 0 00-.368-.224L1.167.04a.883.883 0 00-.688.066.917.917 0 00-.44.544.94.94 0 00.066.702.906.906 0 00.532.45L3.86 2.811l4.12 13.305-1.472 1.23-.117.119a2.47 2.47 0 00-.583 1.542 2.476 2.476 0 00.511 1.569c.245.304.556.545.908.705.353.159.737.232 1.121.212h14.984a.888.888 0 00.634-.268.928.928 0 000-1.298.888.888 0 00-.634-.269H8.205a.592.592 0 01-.505-.314.626.626 0 01.002-.604l2.164-1.835h13.86a.885.885 0 00.575-.194.92.92 0 00.324-.521l1.409-6.341c-.5.117-1.013.176-1.526.174z" fill="#5661CB"/></svg>