<svg width="26" height="26" fill="none" xmlns="http://www.w3.org/2000/svg"><path d="M15.504 23.958a2.808 2.808 0 01-.564-.218 20.435 20.435 0 01-8.321-7.69A20.08 20.08 0 013.853 5.116a2.81 2.81 0 01.417-1.345c.25-.404.6-.737 1.013-.965l2.904-1.651a1.188 1.188 0 01.975-.082 1.198 1.198 0 01.71.734l1.784 5.111a.984.984 0 01-.351 1.1L9.395 9.4a11.602 11.602 0 001.529 4.102 11.656 11.656 0 002.904 3.334l2.178-.976a.972.972 0 011.098.215l3.643 4.025a1.217 1.217 0 01.335 1.003 1.225 1.225 0 01-.567.889l-2.847 1.672a2.818 2.818 0 01-2.164.295zM8.77 2.214l-2.903 1.65a1.532 1.532 0 00-.569.542 1.56 1.56 0 00-.23.755c-.138 3.6.756 7.164 2.573 10.26a19.223 19.223 0 007.832 7.235 1.63 1.63 0 001.562-.052l2.847-1.672-3.518-3.886-2.34 1.053a.593.593 0 01-.56-.041 12.13 12.13 0 01-3.553-3.92 11.944 11.944 0 01-1.737-4.98.614.614 0 01.283-.522l2.055-1.485L8.77 2.214z" fill="#5661CB"/></svg>