<svg width="12" height="17" fill="none" xmlns="http://www.w3.org/2000/svg"><path d="M6.571 15.05c-.225.243-.42.446-.571.6a32.203 32.203 0 01-2.602-3.01c-.738-.975-1.468-2.072-2.011-3.184C.84 8.34.5 7.243.5 6.262c0-1.476.58-2.89 1.613-3.931A5.472 5.472 0 016 .705c1.457 0 2.856.584 3.887 1.626A5.586 5.586 0 0111.5 6.26c0 .982-.34 2.078-.887 3.195-.543 1.112-1.273 2.21-2.011 3.184a32.203 32.203 0 01-2.031 2.41zM6 9.79c.93 0 1.82-.373 2.477-1.035A3.543 3.543 0 009.5 6.262c0-.935-.368-1.832-1.023-2.494A3.486 3.486 0 006 2.733c-.93 0-1.82.373-2.477 1.035A3.543 3.543 0 002.5 6.262c0 .934.368 1.83 1.023 2.493A3.486 3.486 0 006 9.79z" stroke="#5661CB"/></svg>