<svg width="200" height="54" fill="none" xmlns="http://www.w3.org/2000/svg"><g clip-path="url(#clip0)" fill="#1D2B5B"><path d="M4.34 45.24c-.738 0-1.31.29-1.715.87-.405.576-.607 1.38-.607 2.413 0 2.149.774 3.223 2.322 3.223.649 0 1.435-.169 2.36-.507v1.714c-.76.33-1.608.494-2.544.494-1.345 0-2.374-.424-3.087-1.272C.356 51.322 0 50.1 0 48.51c0-1.002.175-1.88.525-2.63.35-.757.852-1.335 1.506-1.735.657-.404 1.427-.606 2.309-.606.898 0 1.8.226 2.707.679l-.633 1.661c-.345-.171-.693-.32-1.043-.448a3 3 0 00-1.031-.191zm13.471 8.075h-1.96v-7.938h-2.512v-1.7h6.984v1.7H17.81v7.938zm11.467-5.103h.645c.603 0 1.055-.123 1.354-.369.3-.25.449-.613.449-1.088 0-.479-.127-.833-.38-1.061-.248-.229-.64-.343-1.176-.343h-.892v2.861zm4.428-1.53c0 1.038-.312 1.831-.936 2.38-.62.55-1.504.825-2.65.825h-.842v3.428h-1.961v-9.638h2.954c1.122 0 1.974.252 2.556.758.586.5.879 1.25.879 2.248zm15.711 1.801c0 1.595-.38 2.821-1.139 3.678-.759.857-1.847 1.286-3.264 1.286-1.417 0-2.505-.429-3.264-1.286-.76-.857-1.139-2.087-1.139-3.692 0-1.604.38-2.828 1.139-3.671.763-.849 1.856-1.273 3.277-1.273s2.507.427 3.258 1.28c.755.852 1.132 2.078 1.132 3.678zm-6.75 0c0 1.076.196 1.887.589 2.432.392.545.978.818 1.758.818 1.565 0 2.347-1.084 2.347-3.25 0-2.171-.778-3.257-2.334-3.257-.78 0-1.369.275-1.765.824-.397.545-.595 1.356-.595 2.433zm14.237-4.806h1.765v4.654l-.025 1.246-.063 1.418h.038l4.27-7.318h2.347v9.638H63.49v-4.628c0-.62.038-1.538.113-2.755h-.05l-4.289 7.383h-2.36v-9.638zm7.231-3.131c-.08.822-.377 1.422-.892 1.8-.515.373-1.257.56-2.227.56-1 0-1.74-.18-2.22-.54-.477-.361-.745-.968-.803-1.82h1.727c.03.453.136.771.322.956.19.18.527.27 1.012.27.426 0 .742-.099.95-.297.21-.202.339-.512.385-.93h1.746zm12.921 12.769l-2.227-7.562h-.056c.08 1.538.12 2.565.12 3.079v4.483H73.14v-9.638h2.67l2.189 7.37h.038l2.321-7.37h2.67v9.638H81.2v-4.562c0-.216.001-.464.006-.745.008-.281.038-1.029.088-2.242h-.056l-2.385 7.549h-1.797zm19.539 0l-.671-2.294h-3.371l-.671 2.294h-2.113l3.264-9.677h2.398l3.276 9.677h-2.112zm-1.14-4.008l-1.05-3.527c-.075-.272-.13-.488-.163-.646-.14.563-.538 1.954-1.196 4.173h2.41zm13.119 4.008h-1.961v-7.938h-2.512v-1.7h6.984v1.7h-2.511v7.938zm14.832 0h-5.327v-9.638h5.327v1.674h-3.365v2.116h3.13v1.675h-3.13v2.485h3.365v1.688zm9.466-5.103h.646c.603 0 1.054-.123 1.354-.369.299-.25.449-.613.449-1.088 0-.479-.127-.833-.38-1.061-.248-.229-.64-.343-1.176-.343h-.893v2.861zm4.429-1.53c0 1.038-.312 1.831-.936 2.38-.62.55-1.504.825-2.651.825h-.842v3.428h-1.96v-9.638h2.954c1.122 0 1.974.252 2.555.758.587.5.88 1.25.88 2.248zm7.317-3.005h1.764v4.654l-.025 1.246-.063 1.417h.038l4.27-7.317h2.346v9.638h-1.745v-4.628c0-.62.038-1.538.114-2.756h-.051l-4.289 7.384h-2.359v-9.638zm21.898 9.638l-.671-2.294h-3.372l-.671 2.294h-2.113l3.265-9.677h2.397l3.277 9.677h-2.112zm-1.139-4.008c-.62-2.079-.97-3.254-1.05-3.527a11.723 11.723 0 01-.165-.646c-.139.563-.538 1.954-1.195 4.173h2.41zm17.311 4.008h-1.954v-7.938h-2.265l-.101.884c-.261 2.246-.493 3.821-.696 4.726-.198.901-.487 1.536-.866 1.906-.376.369-.897.553-1.563.553a2.77 2.77 0 01-.936-.145v-1.674c.245.088.474.132.689.132.224 0 .401-.106.532-.317.131-.215.253-.61.367-1.186.118-.58.271-1.527.461-2.842.195-1.318.359-2.564.494-3.737h5.838v9.638zm14.231-3.013c0 1.002-.321 1.756-.961 2.261-.637.501-1.582.752-2.834.752h-2.531v-9.638h1.961v3.698h.633c1.185 0 2.102.257 2.752.771.653.51.98 1.229.98 2.156zm-4.365 1.338h.512c.646 0 1.118-.11 1.418-.33.299-.224.449-.56.449-1.008 0-.448-.146-.77-.437-.962-.286-.194-.792-.29-1.518-.29h-.424v2.59zM200 53.315h-1.955v-9.638H200v9.638zM28.044 13.635v11.934h-8.163V13.635l4.082-2.973 4.081 2.973zM31.94 0l-7.976 5.809L15.987 0 0 11.644v17.844h9.275v-3.919H3.93V13.635l12.057-8.783 4.645 3.383-4.68 3.409v17.844h16.022V11.644l-4.68-3.409 4.645-3.383 12.058 8.783v11.934h-5.79v3.919h9.72V11.644L31.938 0zm32.344 29.453h-5.298V1.843h20.47V6.03H64.285v23.422zm31.691-6.243c-.537 2.172-1.71 3.865-3.518 5.08-1.78 1.215-3.913 1.823-6.4 1.823-3.305 0-5.933-.97-7.882-2.909-1.921-1.964-2.882-4.472-2.882-7.523 0-3.128.988-5.713 2.966-7.755 2.007-2.043 4.55-3.064 7.63-3.064 3.192 0 5.72 1.009 7.585 3.025 1.865 1.99 2.798 4.718 2.798 8.182v.466H80.124c.056 2.016.608 3.58 1.653 4.692 1.046 1.086 2.5 1.628 4.365 1.628 1.328 0 2.402-.284 3.221-.853.848-.594 1.512-1.525 1.993-2.792h4.619zm-4.535-5.623c-.141-1.68-.72-2.998-1.738-3.955-.988-.982-2.274-1.473-3.856-1.473-1.583 0-2.868.465-3.857 1.395-.96.931-1.554 2.275-1.78 4.033H91.44zm13.124-8.143v2.676c1.47-2.172 3.843-3.258 7.12-3.258 3.024 0 5.439.97 7.247 2.909 1.809 1.939 2.713 4.524 2.713 7.755 0 3.154-.89 5.688-2.67 7.6-1.752 1.888-4.097 2.832-7.036 2.832-3.107 0-5.48-1.047-7.12-3.141V36.86h-4.789V9.444h4.535zm6.146 2.986c-1.893 0-3.377.62-4.45 1.861-1.074 1.241-1.611 2.96-1.611 5.158 0 2.171.537 3.878 1.611 5.119 1.101 1.24 2.613 1.86 4.535 1.86 1.836 0 3.291-.62 4.364-1.86 1.074-1.241 1.611-2.922 1.611-5.042 0-2.171-.551-3.89-1.653-5.157-1.074-1.293-2.543-1.94-4.407-1.94zm19.805 17.023h-4.661V9.443h6.356l6.103 15.9h.085l5.891-15.9h6.357v20.01h-4.661V16.152h-.086l-5.213 13.301h-4.873L130.6 16.152h-.085v13.301zm44.759-6.243c-.536 2.172-1.709 3.865-3.517 5.08-1.78 1.215-3.914 1.823-6.4 1.823-3.306 0-5.934-.97-7.883-2.909-1.921-1.964-2.882-4.472-2.882-7.523 0-3.128.989-5.713 2.967-7.755 2.006-2.043 4.549-3.064 7.628-3.064 3.193 0 5.722 1.009 7.587 3.025 1.864 1.99 2.797 4.718 2.797 8.182v.466h-16.147c.056 2.016.607 3.58 1.652 4.692 1.046 1.086 2.501 1.628 4.366 1.628 1.328 0 2.401-.284 3.221-.853.847-.594 1.511-1.525 1.992-2.792h4.619zm-4.535-5.623c-.141-1.68-.72-2.998-1.737-3.955-.989-.982-2.275-1.473-3.857-1.473-1.582 0-2.868.465-3.857 1.395-.96.931-1.554 2.275-1.779 4.033h11.23zm28.34 4.305c-.34 2.456-1.413 4.42-3.221 5.894-1.809 1.448-4.083 2.171-6.824 2.171-3.277 0-5.891-.943-7.841-2.83-1.949-1.913-2.924-4.408-2.924-7.485 0-3.309.975-5.933 2.924-7.872 1.978-1.964 4.634-2.947 7.968-2.947 2.797 0 5.043.647 6.739 1.94 1.723 1.292 2.726 3.088 3.009 5.39h-4.789c-.283-1.267-.848-2.237-1.695-2.909-.848-.672-1.922-1.008-3.221-1.008-1.865 0-3.334.646-4.408 1.939-1.074 1.266-1.611 3.011-1.611 5.235 0 2.223.509 3.955 1.526 5.196 1.046 1.241 2.486 1.861 4.323 1.861 1.441 0 2.614-.387 3.518-1.163.932-.801 1.525-1.939 1.779-3.412h4.748z"/></g><defs><clipPath id="clip0"><path fill="#fff" d="M0 0h200v53.447H0z"/></clipPath></defs></svg>