<svg width="67" height="53" fill="none" xmlns="http://www.w3.org/2000/svg"><path d="M12.18 52.737v-3.508c0-1.345-.804-2.222-2.183-2.222-.69 0-1.437.234-1.954.994-.402-.643-.976-.994-1.838-.994-.575 0-1.149.175-1.609.819v-.702H3.39v5.613h1.206v-3.099c0-.994.517-1.462 1.322-1.462.804 0 1.206.527 1.206 1.462v3.099h1.207v-3.099c0-.994.574-1.462 1.321-1.462.805 0 1.207.527 1.207 1.462v3.099h1.321zm17.868-5.613h-1.953V45.43h-1.207v1.695h-1.091v1.11h1.091v2.573c0 1.287.517 2.047 1.896 2.047a3.17 3.17 0 001.494-.41l-.345-1.052c-.345.234-.747.292-1.034.292-.574 0-.804-.35-.804-.935v-2.514h1.953v-1.11zm10.227-.117c-.69 0-1.149.35-1.436.819v-.702h-1.207v5.613h1.207V49.58c0-.936.402-1.462 1.149-1.462.23 0 .517.059.747.117l.344-1.17c-.23-.058-.574-.058-.804-.058zm-15.455.585c-.575-.41-1.379-.585-2.24-.585-1.38 0-2.299.702-2.299 1.813 0 .935.69 1.461 1.896 1.637l.575.058c.632.117.976.292.976.585 0 .409-.46.701-1.264.701a3.136 3.136 0 01-1.838-.584l-.575.935c.632.468 1.494.702 2.356.702 1.608 0 2.528-.76 2.528-1.813 0-.994-.747-1.52-1.896-1.695l-.575-.059c-.517-.058-.919-.175-.919-.526 0-.41.402-.643 1.034-.643.69 0 1.38.292 1.724.468l.517-.994zm32.06-.585c-.69 0-1.15.35-1.437.819v-.702h-1.207v5.613h1.207V49.58c0-.936.402-1.462 1.149-1.462.23 0 .517.059.747.117l.345-1.17c-.23-.058-.575-.058-.805-.058zm-15.4 2.923c0 1.696 1.15 2.924 2.93 2.924.805 0 1.38-.176 1.954-.643l-.575-.994c-.46.35-.919.526-1.436.526-.977 0-1.666-.702-1.666-1.813 0-1.052.69-1.754 1.666-1.812.517 0 .977.175 1.436.526l.575-.994c-.575-.468-1.149-.643-1.953-.643-1.782 0-2.93 1.228-2.93 2.923zm11.147 0v-2.806H51.42v.702c-.402-.526-.977-.819-1.724-.819-1.55 0-2.757 1.228-2.757 2.923 0 1.696 1.206 2.924 2.757 2.924.805 0 1.38-.292 1.724-.819v.702h1.207V49.93zm-4.425 0c0-.993.633-1.812 1.667-1.812.976 0 1.666.76 1.666 1.812 0 .994-.69 1.813-1.666 1.813-1.034-.059-1.666-.819-1.666-1.813zm-14.42-2.923c-1.609 0-2.758 1.17-2.758 2.923 0 1.755 1.149 2.924 2.815 2.924.804 0 1.609-.234 2.24-.76l-.574-.877c-.46.35-1.034.584-1.608.584-.747 0-1.494-.35-1.667-1.345h4.08v-.467c.057-1.813-.977-2.982-2.529-2.982zm0 1.052c.746 0 1.264.468 1.378 1.345h-2.87c.115-.76.632-1.345 1.494-1.345zm29.933 1.871v-5.028H62.51v2.924c-.403-.526-.977-.819-1.724-.819-1.551 0-2.758 1.228-2.758 2.923 0 1.696 1.207 2.924 2.758 2.924.804 0 1.379-.292 1.724-.819v.702h1.206V49.93zm-4.424 0c0-.993.632-1.812 1.666-1.812.977 0 1.666.76 1.666 1.812 0 .994-.689 1.813-1.666 1.813-1.034-.059-1.666-.819-1.666-1.813zm-40.332 0v-2.806h-1.207v.702c-.402-.526-.977-.819-1.724-.819-1.55 0-2.757 1.228-2.757 2.923 0 1.696 1.206 2.924 2.757 2.924.805 0 1.38-.292 1.724-.819v.702h1.207V49.93zm-4.482 0c0-.993.632-1.812 1.666-1.812.977 0 1.667.76 1.667 1.812 0 .994-.69 1.813-1.667 1.813-1.034-.059-1.666-.819-1.666-1.813z" fill="#000"/><path d="M24.418 4.502h18.098v33.092H24.418V4.502z" fill="#FF5F00"/><path d="M25.567 21.048a21.242 21.242 0 017.871-16.546C29.934 1.695 25.51 0 20.684 0 9.25 0 0 9.413 0 21.048c0 11.635 9.25 21.048 20.683 21.048 4.826 0 9.25-1.696 12.755-4.502-4.769-3.8-7.871-9.823-7.871-16.546z" fill="#EB001B"/><path d="M66.934 21.048c0 11.635-9.25 21.048-20.684 21.048-4.826 0-9.25-1.696-12.754-4.502 4.826-3.859 7.87-9.823 7.87-16.546a21.242 21.242 0 00-7.87-16.546C37 1.695 41.424 0 46.25 0c11.434 0 20.684 9.472 20.684 21.048z" fill="#F79E1B"/></svg>