<svg width="16" height="19" fill="none" xmlns="http://www.w3.org/2000/svg"><path d="M5.943.229c1.576 0 3.088.724 4.202 2.014 1.115 1.29 1.74 3.038 1.74 4.862 0 1.704-.539 3.27-1.426 4.475l.247.286h.723L16 17.156l-1.371 1.587-4.572-5.29v-.836l-.247-.285c-1.078 1.065-2.45 1.65-3.867 1.65-1.576 0-3.088-.724-4.202-2.014C.626 10.678 0 8.929 0 7.105c0-1.824.626-3.573 1.74-4.862C2.856.953 4.368.229 5.944.229zm0 2.115c-2.286 0-4.114 2.116-4.114 4.761s1.828 4.761 4.114 4.761c2.286 0 4.114-2.116 4.114-4.76 0-2.646-1.828-4.762-4.114-4.762z" fill="#fff"/></svg>