<svg width="78" height="78" fill="none" xmlns="http://www.w3.org/2000/svg"><circle cx="39" cy="39" r="39" fill="#9FA6EE" fill-opacity=".1"/><g clip-path="url(#clip0)"><path d="M53.568 53.728c-.129-.344-1.03-2.492-2.105-4.038-.386-.559-.773-1.031-1.203-1.289-.601-.43-1.59-.73-2.32-.945-.171-.043-.3-.086-.472-.129l-.215-.129c-.601-.172-.601-.172-1.503-.473l-.215-.042c-1.203-.387-2.277-.73-2.836-.86v-2.448c.645-.688 3.05-3.48 3.609-7.346.043-.172.043-.387.086-.559.687-.343 1.117-.773 1.332-1.289.472-1.074-.215-2.062-.516-2.448-.086-1.332-.43-3.695-2.062-5.456C43.773 24.773 41.798 24 39.263 24c-2.105 0-3.824.644-5.112 1.976-1.805 1.847-2.277 4.468-2.363 5.8-.344.386-1.031 1.331-.602 2.362.215.516.645.946 1.332 1.29 0 .171.043.386.043.6 0 .087 0 .172.043.258.516 4.425 2.535 6.53 3.265 7.089v2.405c-1.804.516-7.217 2.148-8.205 3.093 0 0 0 .044-.043.044-1.547 1.546-2.535 4.983-2.578 5.112-.086.3.086.601.387.644.043.043.086.043.172.043.257 0 .472-.172.515-.387.043-.043.988-3.35 2.32-4.768.258-.258 1.203-.688 2.406-1.117v6.014c0 .215.172.387.386.387a.385.385 0 00.387-.387v-6.272c.344-.129.73-.258 1.074-.386v6.658c0 .215.172.387.387.387.257 0 .386-.172.386-.387v-6.873c1.074-.344 2.191-.688 3.093-.902.258-.043.387-.258.387-.516v-3.05c0-.172-.086-.3-.258-.43-.043 0-2.449-1.761-3.05-6.53 0-.085 0-.171-.043-.257 1.46.386 3.437.558 6.014.558 2.406 0 4.296-.172 5.628-.558-.644 3.952-3.437 6.83-3.48 6.873a.64.64 0 00-.171.387v3.093c0 .258.171.43.386.516 0 0 1.504.472 3.18.988V54.5c0 .215.171.387.386.387.258 0 .386-.172.386-.387v-6.573c.387.13.516.172.946.301l.171.043v6.186c0 .215.172.387.387.387a.385.385 0 00.387-.387V48.53c.644.215 1.374.472 1.804.73 1.03.688 2.492 3.738 2.921 4.855a.53.53 0 00.473.3c.043 0 .129 0 .215-.043.343-.043.472-.386.343-.644zM32.131 33.752c-.257-.602.516-1.418.516-1.418.129-.129.172-.3.172-.515.129-1.203.558-3.566 2.105-5.155a5.513 5.513 0 012.148-1.332v2.105c0 .215.172.386.386.386.258 0 .387-.171.387-.386v-2.234c.344-.043.687-.086 1.074-.129v2.964c0 .215.172.387.387.387.257 0 .386-.172.386-.387v-2.964c.344 0 .688.043.988.086v2.277c0 .215.172.386.387.386a.385.385 0 00.387-.386v-2.105c1.16.3 2.105.859 2.835 1.632 1.46 1.59 1.718 3.824 1.761 4.984h.043c0 .128.043.257.13.386.042 0 .73.773.472 1.418-.215.515-1.332 1.632-7.132 1.632-6.1.043-7.217-1.117-7.432-1.632z" fill="#fff"/><path d="M44.847 32.635c-.043-.215-.258-.387-.472-.3a25.011 25.011 0 01-9.623.042l-.258-.043c-.258-.043-.43.086-.473.3-.043.259.086.43.301.473l.258.043c1.59.301 3.222.473 4.854.473 1.719 0 3.394-.172 5.113-.516.214-.085.343-.3.3-.472z" fill="#5661CB"/></g><defs><clipPath id="clip0"><path fill="#fff" transform="translate(25 24)" d="M0 0h28.611v30.888H0z"/></clipPath></defs></svg>