<svg width="27" height="27" fill="none" xmlns="http://www.w3.org/2000/svg"><g clip-path="url(#clip0)"><path fill-rule="evenodd" clip-rule="evenodd" d="M4.837 25.06c-.132.749.607 1.334 1.258 1l7.409-3.807 7.406 3.807c.651.334 1.39-.251 1.259-.999l-1.4-7.982 5.944-5.663c.555-.53.267-1.499-.477-1.603L17.97 8.638l-3.685-7.302a.866.866 0 00-1.565 0L9.035 8.64.77 9.814c-.745.105-1.033 1.074-.478 1.604l5.945 5.663-1.4 7.982v-.004zm8.277-4.67l-6.22 3.196 1.17-6.677a.953.953 0 00-.274-.852l-4.904-4.675 6.838-.972a.886.886 0 00.663-.486l3.117-6.173 3.115 6.173a.886.886 0 00.663.486l6.838.97-4.904 4.675a.952.952 0 00-.275.854l1.17 6.677-6.22-3.196a.85.85 0 00-.777 0z" fill="#5661CB"/></g><defs><clipPath id="clip0"><path fill="#fff" d="M0 0h27v27H0z"/></clipPath></defs></svg>