<svg width="25" height="25" fill="none" xmlns="http://www.w3.org/2000/svg"><path d="M12.5 0C5.596 0 0 5.596 0 12.5S5.596 25 12.5 25 25 19.404 25 12.5 19.404 0 12.5 0z" fill="#40B3E0"/><path d="M18.582 7.19L16.35 18.449s-.312.78-1.17.405l-5.152-3.95-1.874-.905L5 12.937s-.484-.171-.53-.546c-.047-.375.546-.578.546-.578l12.537-4.918s1.03-.452 1.03.297" fill="#fff"/><path d="M9.63 18.321s-.15-.014-.337-.607c-.187-.594-1.14-3.716-1.14-3.716l7.572-4.809s.438-.265.422 0c0 0 .078.047-.156.266-.234.218-5.948 5.355-5.948 5.355" fill="#D2E5F1"/><path d="M12.002 16.417l-2.038 1.858s-.159.121-.333.045l.39-3.45" fill="#B5CFE4"/></svg>