<svg width="119" height="53" fill="none" xmlns="http://www.w3.org/2000/svg"><g clip-path="url(#clip0)"><path d="M45.058.679L29.52 37.852H19.384L11.738 8.184c-.464-1.823-.867-2.493-2.277-3.264C7.155 3.664 3.347 2.489 0 1.758L.226.678h16.32c2.076 0 3.946 1.388 4.422 3.789l4.04 21.513L34.982.679h10.076zm13.703 0l-7.929 37.173h-9.59L49.172.68h9.59-.001zm26.013 25.036c.04-9.809-13.524-10.353-13.435-14.736.032-1.333 1.298-2.751 4.068-3.114 1.372-.178 5.163-.32 9.457 1.665l1.68-7.888C84.237.805 81.268 0 77.574 0c-9.48 0-16.148 5.05-16.201 12.287-.062 5.353 4.763 8.336 8.392 10.119 3.738 1.82 4.991 2.99 4.974 4.618-.027 2.494-2.985 3.598-5.736 3.64-4.823.076-7.618-1.308-9.849-2.35l-1.74 8.15c2.243 1.03 6.378 1.926 10.661 1.972 10.078 0 16.67-4.992 16.7-12.72zm25.033 12.137h8.867L110.928.68h-8.181c-1.845 0-3.396 1.074-4.084 2.725L84.275 37.852h10.07l1.998-5.553h12.303l1.163 5.553h-.001zm-10.704-13.17l5.05-13.96 2.9 13.96h-7.95zM71.034 48.084h-3.897v3.637h4.359v1.094h-5.671v-10.09h5.447v1.094h-4.135v3.188h3.897v1.078zm2.475-5.897h1.313v10.628H73.51V42.187zm4.626 7.244c.03 1.782 1.15 2.516 2.477 2.516.941 0 1.523-.165 2.001-.374l.239.943c-.463.21-1.269.464-2.419.464-2.223 0-3.551-1.482-3.551-3.668 0-2.185 1.282-3.892 3.387-3.892 2.374 0 2.986 2.066 2.986 3.398 0 .27-.015.464-.046.614h-5.074zm3.85-.942c.016-.823-.342-2.126-1.82-2.126-1.344 0-1.911 1.212-2.016 2.126h3.837zm8.416 4.071c-.343.165-1.104.42-2.074.42-2.18 0-3.597-1.482-3.597-3.698 0-2.23 1.521-3.862 3.88-3.862.776 0 1.463.194 1.82.39l-.297 1.002c-.314-.165-.807-.345-1.523-.345-1.657 0-2.552 1.243-2.552 2.74 0 1.677 1.075 2.71 2.507 2.71a3.75 3.75 0 001.612-.344l.224.987zm3.685-8.727v1.736h1.88v1.003h-1.88v3.907c0 .9.254 1.407.985 1.407.358 0 .567-.029.761-.09l.06 1.005a3.603 3.603 0 01-1.164.178c-.613 0-1.105-.21-1.418-.553-.359-.405-.508-1.048-.508-1.901v-3.953h-1.12v-1.003h1.12v-1.347l1.284-.389zM97.8 47.83c0-.853-.016-1.587-.06-2.26h1.15l.06 1.436h.044c.33-.972 1.134-1.586 2.015-1.586.135 0 .239.015.359.03v1.242c-.135-.03-.268-.03-.449-.03-.924 0-1.582.688-1.76 1.677a3.947 3.947 0 00-.045.614v3.862H97.8V47.83zm11.641 1.302c0 2.68-1.866 3.848-3.597 3.848-1.941 0-3.463-1.438-3.463-3.728 0-2.41 1.597-3.832 3.582-3.832 2.075 0 3.478 1.511 3.478 3.712zm-5.717.075c0 1.587.895 2.785 2.179 2.785 1.254 0 2.194-1.184 2.194-2.815 0-1.227-.612-2.77-2.164-2.77-1.537 0-2.209 1.438-2.209 2.8zm7.73-1.677c0-.763-.016-1.362-.06-1.96h1.164l.075 1.197h.029c.359-.674 1.194-1.347 2.389-1.347.999 0 2.552.599 2.552 3.083v4.312h-1.313v-4.177c0-1.167-.433-2.14-1.672-2.14-.851 0-1.523.613-1.761 1.347-.06.165-.09.389-.09.614v4.356h-1.313V47.53z" fill="#1A1F71"/></g><defs><clipPath id="clip0"><path fill="#fff" d="M0 0h118.674v53H0z"/></clipPath></defs></svg>