<svg width="26" height="26" fill="none" xmlns="http://www.w3.org/2000/svg"><path d="M13.813 24.375a12.08 12.08 0 01-5.917-1.523L0 26l3.148-7.896a12.08 12.08 0 01-1.523-5.916c0-1.66.322-3.238.965-4.736.643-1.498 1.51-2.793 2.602-3.885C6.284 2.476 7.58 1.608 9.077.965A11.877 11.877 0 0113.813 0c1.658 0 3.237.322 4.735.965 1.498.643 2.793 1.51 3.885 2.602 1.091 1.092 1.959 2.387 2.602 3.885.643 1.498.965 3.077.965 4.736 0 1.658-.322 3.237-.965 4.735-.643 1.498-1.51 2.793-2.602 3.885-1.092 1.091-2.387 1.959-3.885 2.602a11.877 11.877 0 01-4.735.965zm4.062-9.75H16.25l-.914.813c-.762-.204-1.697-.86-2.806-1.968-1.108-1.109-1.764-2.044-1.967-2.806l.812-.914V8.125c0-.288-.102-.576-.305-.863-.203-.288-.427-.495-.672-.622-.246-.127-.42-.14-.521-.038L8.684 7.795c-.66.66-.758 1.688-.292 3.085.465 1.396 1.354 2.75 2.666 4.062 1.312 1.312 2.666 2.2 4.062 2.666 1.397.466 2.425.369 3.085-.292l1.193-1.193c.102-.102.09-.275-.038-.52-.127-.246-.334-.47-.622-.673-.287-.203-.575-.305-.863-.305z" fill="#46C756"/></svg>